<svg id="Capa_1" enable-background="new 0 0 512 512" height="512" viewBox="0 0 512 512" width="512" xmlns="http://www.w3.org/2000/svg"><g><g><circle cx="256" cy="256" fill="none" r="50.44"/><path d="m178.501 374.887c-7.58 7.58-19.87 7.58-27.451 0l-1.614-1.614h-139.436v98.405c0 11.354 9.204 20.559 20.559 20.559h134.33c11.354 0 20.559-9.205 20.559-20.559v-98.405h-5.332z" fill="#fff"/><path d="m137.113 360.95c-7.58-7.581-7.58-19.871 0-27.451l1.662-1.662h-108.216c-11.354 0-20.559 9.204-20.559 20.559v20.877h139.436z" fill="#a5dbff"/><path d="m185.448 373.272v-5.332l-5.333 5.332z" fill="#a5dbff"/><path d="m326.552 367.94v5.332h5.333z" fill="#9593e6"/><path d="m137.113 151.05 13.937-13.937c7.58-7.58 19.87-7.58 27.451 0l6.947 6.947v-82.86h-175.448v98.405c0 11.354 9.204 20.559 20.559 20.559h108.217l-1.662-1.662c-7.581-7.581-7.581-19.872-.001-27.452zm-16.802-19.29-31.284 18.234c-9.194 5.358-20.736-1.273-20.736-11.915v-36.469c0-10.642 11.542-17.273 20.736-11.915l31.284 18.234c9.128 5.321 9.128 18.51 0 23.831z" fill="#fff"/><path d="m185.448 40.323c0-11.354-9.204-20.559-20.559-20.559h-134.33c-11.355 0-20.559 9.205-20.559 20.559v20.877h175.448z" fill="#9593e6"/><path d="m360.95 137.113 13.937 13.937c7.58 7.58 7.58 19.871 0 27.451l-1.662 1.662h108.217c11.354 0 20.559-9.205 20.559-20.559v-98.404h-175.449v82.86l6.947-6.947c7.58-7.58 19.87-7.58 27.451 0z" fill="#fff"/><path d="m502 40.323c0-11.354-9.205-20.559-20.559-20.559h-134.33c-11.354 0-20.559 9.205-20.559 20.559v20.877h175.448z" fill="#a5dbff"/><path d="m120.311 107.93-31.285-18.234c-9.194-5.359-20.736 1.273-20.736 11.915v36.469c0 10.642 11.542 17.273 20.736 11.915l31.284-18.234c9.129-5.322 9.129-18.511.001-23.831z" fill="#66e4d1"/><path d="m333.499 374.887c7.58 7.58 19.87 7.58 27.451 0l1.614-1.614 12.323-12.323c7.58-7.581 7.58-19.871 0-27.451l-1.662-1.662-20.507-20.507c4.647-8.106 8.307-16.844 10.811-26.065h31.337c10.72 0 19.411-8.69 19.411-19.411v-19.709c0-10.72-8.69-19.411-19.411-19.411h-31.337c-2.504-9.221-6.164-17.958-10.812-26.064l20.507-20.507 1.662-1.662c7.58-7.58 7.58-19.871 0-27.451l-13.937-13.937c-7.58-7.58-19.87-7.58-27.451 0l-6.947 6.947-15.222 15.222c-8.106-4.647-16.844-8.308-26.065-10.812v-31.336c0-10.72-8.69-19.411-19.411-19.411h-19.71c-10.72 0-19.411 8.69-19.411 19.411v31.336c-9.221 2.504-17.959 6.164-26.065 10.812-12.392-12.392-9.735-9.735-22.169-22.169-7.58-7.58-19.87-7.58-27.451 0l-13.937 13.937c-7.58 7.58-7.58 19.871 0 27.451l1.662 1.662 20.507 20.507c-4.648 8.106-8.308 16.844-10.812 26.064h-31.337c-10.72 0-19.411 8.69-19.411 19.411v19.709c0 10.72 8.69 19.411 19.411 19.411h31.337c2.504 9.221 6.164 17.959 10.811 26.065l-20.507 20.507-1.662 1.662c-7.58 7.58-7.58 19.87 0 27.451l12.323 12.323 1.614 1.614c7.58 7.58 19.87 7.58 27.451 0 23.792-23.792 16.968-16.968 22.169-22.169 8.106 4.647 16.844 8.308 26.065 10.811v31.337c0 10.72 8.69 19.41 19.411 19.41h19.71c10.72 0 19.411-8.69 19.411-19.41v-31.337c9.221-2.503 17.959-6.164 26.065-10.811l15.222 15.222 5.332 5.333zm-77.499-68.448c-27.857 0-50.44-22.583-50.44-50.439 0-27.857 22.583-50.439 50.44-50.439s50.44 22.582 50.44 50.439-22.583 50.439-50.44 50.439z" fill="#fff398"/><path d="m374.887 360.95-12.323 12.323h139.436v-20.877c0-11.354-9.205-20.559-20.559-20.559h-108.216l1.662 1.662c7.58 7.58 7.58 19.87 0 27.451z" fill="#9593e6"/><path d="m395.297 435.634 20.566 17.138c5.74 4.784 14.018 4.985 19.984.486l10.502-7.92c8.042-6.064 19.064-6.296 27.353-.574l28.298 19.533v-91.025h-139.436l-1.614 1.614c-7.58 7.58-19.87 7.58-27.451 0l-1.614-1.614h-5.332v87.665l40.951-26.887c8.602-5.647 19.887-5.005 27.793 1.584z" fill="#fff"/><path d="m502 471.677v-7.38l-28.299-19.534c-8.289-5.722-19.311-5.49-27.353.574l-10.502 7.92c-5.966 4.499-14.244 4.297-19.984-.486l-20.566-17.138c-7.906-6.588-19.191-7.231-27.794-1.583l-40.951 26.887c.668 7.577-3.374 21.124 10.995 28.943 8.066 4.246 2.685 1.503 143.894 2.355 11.418.001 20.56-9.275 20.56-20.558z" fill="#66e4d1"/></g><g><path d="m481.44 9.76h-134.33c-16.851 0-30.56 13.709-30.56 30.561v99.597l-7.062 7.062c-4.618-2.271-9.368-4.242-14.218-5.9v-23.95c0-16.217-13.198-29.41-29.42-29.41h-19.7c-16.222 0-29.42 13.193-29.42 29.41v23.949c-4.85 1.658-9.601 3.629-14.218 5.9l-7.062-7.062v-99.597c0-16.852-13.709-30.561-30.56-30.561h-134.33c-16.851.001-30.56 13.71-30.56 30.561v119.28c0 16.852 13.709 30.561 30.56 30.561h104.068l12.352 12.352c-2.271 4.617-4.242 9.367-5.901 14.219h-23.949c-16.217 0-29.41 13.197-29.41 29.42v19.699c0 16.223 13.193 29.42 29.41 29.42h23.949c1.658 4.851 3.629 9.602 5.9 14.219l-12.352 12.352h-104.067c-16.851-.002-30.56 13.707-30.56 30.558v119.279c0 16.852 13.709 30.561 30.56 30.561h134.33c16.851 0 30.56-13.709 30.56-30.561 0-4.037 0-95.376 0-99.597l7.062-7.062c4.617 2.271 9.367 4.241 14.218 5.899v23.95c0 16.216 13.198 29.409 29.42 29.409h19.7c16.222 0 29.42-13.193 29.42-29.409v-23.95c4.851-1.658 9.602-3.629 14.218-5.899l7.062 7.062v99.598c0 16.852 13.709 30.561 30.56 30.561h134.33c16.851 0 30.56-13.709 30.56-30.561 0-42.602 0-76.845 0-119.279 0-16.852-13.709-30.561-30.56-30.561h-104.068l-12.352-12.352c2.271-4.617 4.242-9.368 5.9-14.219h23.949c16.217 0 29.41-13.197 29.41-29.42v-19.699c0-16.223-13.193-29.42-29.41-29.42h-23.949c-1.659-4.852-3.63-9.602-5.901-14.219l12.352-12.352h104.069c16.851 0 30.56-13.709 30.56-30.561v-98.4-20.875-.003c0-16.851-13.709-30.56-30.56-30.56zm-461.44 30.563c0-5.822 4.737-10.56 10.559-10.56h134.33c5.822 0 10.559 4.737 10.559 10.56v10.876h-155.448zm10.56 129.837c-5.823 0-10.56-4.737-10.56-10.561v-88.4h155.45v52.231c-2.549-.996-5.535-1.688-8.446-1.9-19.053-1.442-25.525 12.668-36.966 22.448-6.912 6.911-9.853 16.754-8.106 26.182zm-10.56 182.24c0-5.823 4.737-10.561 10.56-10.561h91.372c-1.366 7.389.145 15.125 4.251 21.43h-106.183zm155.45 119.28c0 5.823-4.737 10.561-10.56 10.561h-134.33c-5.823 0-10.56-4.737-10.56-10.561v-88.41h125.385c8.51 7.454 20.192 9.139 30.065 5.298zm191.165-88.41h125.385v61.975l-12.618-8.71c-11.856-8.184-27.551-7.854-39.054.819l-10.502 7.92c-2.269 1.708-5.379 1.635-7.562-.185l-20.565-17.137c-11.368-9.474-27.315-10.382-39.684-2.261l-25.465 16.719v-53.842c10.282 3.97 21.976 1.869 30.065-5.298zm125.385 88.407c0 5.822-4.737 10.559-10.559 10.559h-134.33c-5.822 0-10.559-4.736-10.559-10.559v-5.342l36.439-23.925c4.954-3.256 11.347-2.893 15.903.906l20.565 17.138c9.355 7.796 22.682 8.121 32.406.788l10.502-7.92c4.61-3.477 10.899-3.609 15.651-.329l23.982 16.553zm-10.56-129.837c5.823 0 10.56 4.737 10.56 10.561v10.869h-106.183c4.14-6.358 5.604-14.112 4.251-21.43zm-86.57-105.11c5.189 0 9.41 4.226 9.41 9.42v19.699c0 5.194-4.221 9.42-9.41 9.42h-31.34c-4.515 0-8.47 3.025-9.651 7.383-2.236 8.248-5.545 16.223-9.834 23.703-2.246 3.917-1.588 8.854 1.604 12.046l22.17 22.17c3.669 3.669 3.669 9.639 0 13.308-2.318 2.318-8.473 8.474-13.94 13.94-3.67 3.668-9.64 3.668-13.306.002-.132-.132-1.723-1.724-1.622-1.623-3.678-3.678-14.928-14.928-20.55-20.55-3.193-3.192-8.129-3.851-12.045-1.604-7.478 4.288-15.453 7.596-23.703 9.833-4.357 1.182-7.383 5.137-7.383 9.651v31.341c0 5.188-4.226 9.409-9.42 9.409h-19.7c-5.194 0-9.42-4.221-9.42-9.409v-31.341c0-4.515-3.025-8.47-7.383-9.651-19.31-5.237-22.735-11.158-28.674-11.158-2.588 0-5.148 1.003-7.075 2.929-29.225 29.225 6.999-7-22.169 22.171-3.624 3.623-9.999 4.279-14.928-1.621-11.432-11.899-13.542-12.424-14.685-16.292-1.981-6.705 3.545-10.242 4.025-10.995 31.651-31.651 15.98-15.98 20.51-20.51 3.193-3.192 3.85-8.129 1.604-12.046-4.29-7.48-7.598-15.455-9.834-23.703-1.181-4.357-5.136-7.383-9.651-7.383h-31.34c-5.189 0-9.41-4.226-9.41-9.42v-19.699c0-5.194 4.221-9.42 9.41-9.42h31.34c4.515 0 8.47-3.025 9.651-7.383 2.237-8.25 5.545-16.225 9.834-23.703 2.246-3.917 1.589-8.854-1.604-12.046-6.636-6.636-12.052-12.052-22.17-22.17-3.669-3.669-3.669-9.639 0-13.308 14.56-14.537 13.972-14.03 14.654-14.585 3.715-3.029 9.173-2.777 12.594.645l3.475 3.475c24.575 24.575 16.008 16.008 18.695 18.695 3.193 3.192 8.128 3.851 12.045 1.604 7.481-4.289 15.457-7.598 23.704-9.834 4.357-1.182 7.383-5.137 7.383-9.651v-31.34c0-5.188 4.226-9.41 9.42-9.41h19.7c5.194 0 9.42 4.222 9.42 9.41v31.34c0 4.515 3.025 8.47 7.383 9.651 8.247 2.236 16.222 5.545 23.704 9.834 3.917 2.244 8.852 1.588 12.045-1.604 10.649-10.649-14.21 14.21 22.17-22.17 3.668-3.669 9.639-3.671 13.308 0l13.94 13.94c3.669 3.669 3.669 9.639 0 13.308-6.469 6.469-12.192 12.192-22.17 22.17-3.193 3.192-3.85 8.129-1.604 12.046 4.289 7.479 7.597 15.453 9.834 23.703 1.181 4.357 5.136 7.383 9.651 7.383zm86.57-66.57h-91.372c1.32-7.126-.074-14.545-3.697-20.535-2.983-4.963-6.684-7.898-18.35-19.587-8.365-8.364-20.783-10.748-31.472-6.607v-52.232h67.784c5.523 0 10-4.478 10-10s-4.477-10-10-10h-67.781v-10.876c0-5.822 4.737-10.56 10.559-10.56h134.33c5.822 0 10.559 4.737 10.559 10.56v10.876h-7.667c-5.523 0-10 4.478-10 10s4.477 10 10 10h7.667v88.4c0 5.824-4.737 10.561-10.56 10.561z"/><path d="m125.346 140.399c15.742-9.175 15.762-31.922 0-41.109l-31.284-18.234c-15.854-9.242-35.771 2.18-35.771 20.555v36.469c0 13.772 11.291 23.83 23.793 23.83 10.523-.001 14.539-5.728 43.262-21.511zm-10.071-17.279-31.285 18.234c-2.547 1.483-5.7-.351-5.7-3.275v-36.469c0-2.93 3.152-4.761 5.7-3.275l31.285 18.234c2.503 1.459 2.533 5.076 0 6.551z"/><path d="m145.487 393.504h-57.154c-5.523 0-10 4.478-10 10s4.477 10 10 10h57.153c5.523 0 10-4.478 10-10s-4.476-10-9.999-10z"/><path d="m145.487 423.181h-95.526c-5.523 0-10 4.478-10 10s4.477 10 10 10h95.526c5.523 0 10-4.478 10-10s-4.477-10-10-10z"/><path d="m145.487 452.857h-95.526c-5.523 0-10 4.478-10 10s4.477 10 10 10h95.526c5.523 0 10-4.478 10-10s-4.477-10-10-10z"/><path d="m431.74 107.428h-7.464v-7.464c0-5.522-4.477-10-10-10s-10 4.478-10 10v7.464h-7.464c-5.523 0-10 4.478-10 10s4.477 10 10 10h7.464v7.464c0 5.522 4.477 10 10 10s10-4.478 10-10v-7.464h7.464c5.523 0 10-4.478 10-10s-4.477-10-10-10z"/><path d="m256 195.561c-33.327 0-60.44 27.113-60.44 60.439s27.113 60.439 60.44 60.439 60.44-27.113 60.44-60.439-27.113-60.439-60.44-60.439zm0 100.878c-22.299 0-40.44-18.141-40.44-40.439s18.141-40.439 40.44-40.439 40.44 18.141 40.44 40.439-18.141 40.439-40.44 40.439z"/><path d="m444.358 51.199h-.025c-5.523 0-9.987 4.478-9.987 10s4.489 10 10.012 10 10-4.478 10-10-4.477-10-10-10z"/></g></g></svg>